<?xml version="1.0" encoding="UTF-8"?>
<svg xmlns="http://www.w3.org/2000/svg" version="1.1" viewBox="0 0 1920 1080">
  <defs>
    <style>
      .cls-1 {
        stroke: #000;
        stroke-miterlimit: 10;
        stroke-width: 2px;
      }

      .cls-1, .cls-2 {
        fill: #fff;
      }

      .cls-3 {
        fill: #000;
      }

      .cls-3, .cls-2 {
        font-family: Hahmlet-ExtraBold, Hahmlet;
        font-size: 48px;
        font-weight: 700;
      }

      .cls-4 {
        fill: gray;
        stroke-width: 0px;
      }
    </style>
  </defs>
  <g id="_레이어_2" data-name="레이어 2">
    <rect class="cls-4" x="1486" y="552" width="203" height="366"/>
    <text class="cls-3" transform="translate(435.58 524.24)"><tspan x="0" y="0">3층 합강 앞</tspan></text>
    <text class="cls-3" transform="translate(195.39 252.24)"><tspan x="0" y="0">중앙 정원</tspan></text>
    <text class="cls-3" transform="translate(835.39 252.24)"><tspan x="0" y="0">자판기 앞</tspan></text>
    <text class="cls-3" transform="translate(1116.58 699.24)"><tspan x="0" y="0">급식소 앞</tspan></text>
    <text class="cls-3" transform="translate(434.58 792.24)"><tspan x="0" y="0">2층 합강 앞</tspan></text>
    <text class="cls-2" transform="translate(1521.58 753.24)"><tspan x="0" y="0">급식소</tspan></text>
  </g>
  <g id="hapgang2">
    <path class="cls-1" d="M717.5,666.18v134.01c0,65.34,52.97,118.31,118.31,118.31s118.31-52.97,118.31-118.31v-134.01h-236.62Z"/>
  </g>
  <g id="hapgang2text">
    <text class="cls-3" transform="translate(794.93 795.79)"><tspan x="0" y="0">0명</tspan></text>
  </g>
  <g id="hapgang3">
    <path class="cls-1" d="M717.5,398.17v134.01c0,65.34,52.97,118.31,118.31,118.31s118.31-52.97,118.31-118.31v-134.01h-236.62Z"/>
  </g>
  <g id="hapgang3text">
    <text class="cls-3" transform="translate(794.93 531.79)"><tspan x="0" y="0">0명</tspan></text>
  </g>
  <g id="food02">
    <rect class="cls-1" x="1364.26" y="552.33" width="91.75" height="263.18"/>
  </g>
  <g id="food02text">
    <text class="cls-3" transform="translate(1368.93 701.79)"><tspan x="0" y="0">0명</tspan></text>
  </g>
  <g id="food01">
    <rect class="cls-1" x="1061.29" y="161.79" width="196.78" height="148.49"/>
  </g>
  <g id="food01text">
    <text class="cls-3" transform="translate(1118.93 254.79)"><tspan x="0" y="0">0명</tspan></text>
  </g>
  <g id="vending">
    <rect class="cls-1" x="428.95" y="162" width="196.78" height="148.49"/>
  </g>
  <g id="vendingtext">
    <text class="cls-3" transform="translate(486.93 254.79)"><tspan x="0" y="0">0명</tspan></text>
  </g>
</svg>